<svg width="28" height="28" viewBox="0 0 28 28" fill="none" xmlns="http://www.w3.org/2000/svg">
<path d="M22.0733 7.01168C21.84 6.32334 21.1867 5.83334 20.4167 5.83334H7.58333C6.81333 5.83334 6.17167 6.32334 5.92667 7.01168L3.5 14V23.3333C3.5 23.975 4.025 24.5 4.66667 24.5H5.83333C6.475 24.5 7 23.975 7 23.3333V22.1667H21V23.3333C21 23.975 21.525 24.5 22.1667 24.5H23.3333C23.975 24.5 24.5 23.975 24.5 23.3333V14L22.0733 7.01168ZM7.58333 18.6667C6.615 18.6667 5.83333 17.885 5.83333 16.9167C5.83333 15.9483 6.615 15.1667 7.58333 15.1667C8.55167 15.1667 9.33333 15.9483 9.33333 16.9167C9.33333 17.885 8.55167 18.6667 7.58333 18.6667ZM20.4167 18.6667C19.4483 18.6667 18.6667 17.885 18.6667 16.9167C18.6667 15.9483 19.4483 15.1667 20.4167 15.1667C21.385 15.1667 22.1667 15.9483 22.1667 16.9167C22.1667 17.885 21.385 18.6667 20.4167 18.6667ZM5.83333 12.8333L7.58333 7.58334H20.4167L22.1667 12.8333H5.83333Z" fill="#212529"/>
</svg>
