<svg width="28" height="28" viewBox="0 0 28 28" fill="none" xmlns="http://www.w3.org/2000/svg">
<path d="M18.6667 12.8333C20.6034 12.8333 22.1551 11.27 22.1551 9.33333C22.1551 7.39666 20.6034 5.83333 18.6667 5.83333C16.7301 5.83333 15.1667 7.39666 15.1667 9.33333C15.1667 11.27 16.7301 12.8333 18.6667 12.8333ZM9.33341 12.8333C11.2701 12.8333 12.8217 11.27 12.8217 9.33333C12.8217 7.39666 11.2701 5.83333 9.33341 5.83333C7.39675 5.83333 5.83341 7.39666 5.83341 9.33333C5.83341 11.27 7.39675 12.8333 9.33341 12.8333ZM9.33341 15.1667C6.61508 15.1667 1.16675 16.5317 1.16675 19.25V22.1667H17.5001V19.25C17.5001 16.5317 12.0517 15.1667 9.33341 15.1667ZM18.6667 15.1667C18.3284 15.1667 17.9434 15.19 17.5351 15.225C18.8884 16.205 19.8334 17.5233 19.8334 19.25V22.1667H26.8334V19.25C26.8334 16.5317 21.3851 15.1667 18.6667 15.1667Z" fill="#212529"/>
</svg>
