<svg width="28" height="28" viewBox="0 0 28 28" fill="none" xmlns="http://www.w3.org/2000/svg">
<path d="M22.1667 5.83333V22.1667H5.83333V5.83333H22.1667ZM23.45 3.5H4.55C3.96667 3.5 3.5 3.96667 3.5 4.55V23.45C3.5 23.9167 3.96667 24.5 4.55 24.5H23.45C23.9167 24.5 24.5 23.9167 24.5 23.45V4.55C24.5 3.96667 23.9167 3.5 23.45 3.5ZM12.8333 8.16667H19.8333V10.5H12.8333V8.16667ZM12.8333 12.8333H19.8333V15.1667H12.8333V12.8333ZM12.8333 17.5H19.8333V19.8333H12.8333V17.5ZM8.16667 8.16667H10.5V10.5H8.16667V8.16667ZM8.16667 12.8333H10.5V15.1667H8.16667V12.8333ZM8.16667 17.5H10.5V19.8333H8.16667V17.5Z" fill="#212529"/>
</svg>
